<svg width="487" height="418" viewBox="0 0 487 418" fill="none" xmlns="http://www.w3.org/2000/svg">
<g clip-path="url(#clip0_245_624)">
<path d="M252.105 350.628L266.373 346.425L262.21 360.733L266.373 375.001L252.105 370.838L237.797 375.001L242.001 360.733L237.797 346.425L252.105 350.628Z" fill="black" stroke="white" stroke-width="0.810636" stroke-miterlimit="10"/>
</g>
<g clip-path="url(#clip1_245_624)">
<path d="M101.286 280.082L126.802 293.984L101.286 307.998L87.3281 333.458L73.3699 307.998L47.8544 293.984L73.37 280.082L87.3281 254.511L101.286 280.082Z" fill="black" stroke="white" stroke-width="0.810636" stroke-miterlimit="10"/>
</g>
<path d="M280.143 163.089C335.623 193.691 383.234 226.114 415.362 253.791C431.428 267.632 443.605 280.271 450.961 290.89C454.639 296.201 457.098 300.987 458.243 305.151C459.386 309.312 459.208 312.816 457.668 315.608C456.129 318.399 453.26 320.419 449.13 321.671C444.998 322.924 439.637 323.398 433.184 323.119C420.278 322.563 403.091 319.005 382.814 312.799C342.266 300.388 289.443 277.413 233.963 246.811C178.484 216.209 130.872 183.785 98.7449 156.108C82.6786 142.268 70.5012 129.629 63.1459 119.009C59.4677 113.699 57.0086 108.913 55.8641 104.749C54.7202 100.587 54.8984 97.0839 56.4382 94.2922C57.9781 91.5006 60.8463 89.481 64.9767 88.2285C69.1092 86.9754 74.4693 86.5022 80.923 86.7806C93.8287 87.3373 111.016 90.8949 131.293 97.1012C171.841 109.512 224.664 132.487 280.143 163.089Z" stroke="black" stroke-width="0.810636"/>
<path d="M263.744 192.818C319.223 223.42 366.835 255.843 398.962 283.52C415.029 297.361 427.206 310 434.561 320.619C438.24 325.93 440.699 330.716 441.843 334.88C442.987 339.041 442.809 342.545 441.269 345.337C439.729 348.128 436.861 350.148 432.731 351.4C428.598 352.653 423.238 353.127 416.784 352.848C403.879 352.292 386.692 348.734 366.414 342.528C325.866 330.117 273.043 307.142 217.564 276.54C162.084 245.938 114.473 213.514 82.3454 185.837C66.2792 171.997 54.1018 159.358 46.7464 148.738C43.0683 143.428 40.6092 138.642 39.4647 134.478C38.3208 130.316 38.499 126.813 40.0388 124.021C41.5787 121.23 44.4469 119.21 48.5773 117.957C52.7098 116.704 58.0699 116.231 64.5236 116.51C77.4293 117.066 94.6161 120.624 114.893 126.83C155.442 139.241 208.265 162.216 263.744 192.818Z" stroke="black" stroke-width="0.810636"/>
<path d="M247.347 222.548C302.826 253.15 350.437 285.573 382.565 313.25C398.631 327.09 410.809 339.73 418.164 350.349C421.842 355.659 424.301 360.445 425.446 364.609C426.59 368.771 426.411 372.274 424.872 375.066C423.332 377.858 420.463 379.877 416.333 381.13C412.201 382.383 406.84 382.856 400.387 382.578C387.481 382.021 370.294 378.463 350.017 372.257C309.469 359.847 256.646 336.871 201.166 306.269C145.687 275.667 98.0756 243.244 65.948 215.567C49.8817 201.726 37.7044 189.087 30.349 178.468C26.6708 173.158 24.2117 168.371 23.0672 164.208C21.9233 160.046 22.1015 156.542 23.6413 153.751C25.1812 150.959 28.0495 148.94 32.1799 147.687C36.3123 146.434 41.6725 145.961 48.1262 146.239C61.0319 146.796 78.2186 150.353 98.4959 156.56C139.044 168.97 191.867 191.946 247.347 222.548Z" stroke="black" stroke-width="0.810636"/>
<circle cx="106.598" cy="84.7113" r="12.5649" fill="#EB4219"/>
<circle cx="341.279" cy="352.626" r="8.10636" fill="#EB4219"/>
<circle cx="66.0665" cy="52.2863" r="19.0499" fill="black"/>
<path d="M248.032 310.952C242.922 312.698 237.082 309.237 235.05 303.236L203.437 210.611L221.91 204.292L253.555 297.044C255.586 302.982 253.111 309.205 248.032 310.952Z" fill="black"/>
<path d="M245.27 312.095C243.778 312.095 242.254 311.746 240.794 311.015C237.843 309.555 235.494 306.824 234.351 303.458L202.737 210.833C202.61 210.484 202.801 210.071 203.182 209.944L221.655 203.625C221.845 203.562 222.036 203.562 222.194 203.657C222.353 203.752 222.48 203.879 222.544 204.07L254.189 296.822C256.316 303.109 253.649 309.745 248.222 311.619C247.301 311.936 246.286 312.095 245.27 312.095ZM204.324 211.056L235.716 303.013C236.732 306.03 238.827 308.507 241.429 309.777C243.524 310.793 245.778 310.984 247.809 310.285C252.507 308.666 254.792 302.823 252.888 297.266L221.464 205.181L204.324 211.056Z" fill="black"/>
<path d="M218.639 124.337L158.872 166.982L135.606 191.146L126.465 207.308L126.433 207.435C124.624 210.23 125.671 216.676 129.067 223.249C132.4 229.726 137.098 234.235 140.399 234.489L140.304 234.553L157.856 236.458L190.708 231.219L260.442 206.261L347.125 221.121L347.729 221.153C325.954 217.089 296.563 187.971 275.201 146.787C253.871 105.634 247.079 64.958 256.442 44.8899H256.411L219.116 123.321L218.639 124.337Z" fill="#F15716"/>
<path d="M362.135 219.361C383.558 208.231 379.415 157.773 352.882 106.661C326.349 55.5489 287.473 23.1369 266.05 34.2668C244.627 45.3968 248.769 95.8541 275.302 146.966C301.835 198.079 340.712 230.491 362.135 219.361Z" fill="white"/>
<path d="M352.712 222.265C343.381 222.265 332.145 217.057 320.051 206.928C303.578 193.147 287.422 171.904 274.567 147.073C255.11 109.477 247.08 70.9279 254.126 48.8593C256.475 41.4925 260.411 36.3485 265.775 33.5859C276.44 28.1243 291.453 32.7603 308.085 46.6683C324.559 60.4493 340.714 81.6923 353.569 106.523C373.058 144.119 381.089 182.668 374.01 204.737C371.662 212.103 367.726 217.248 362.362 220.01C359.473 221.534 356.236 222.265 352.712 222.265ZM275.487 32.7603C272.218 32.7603 269.171 33.4271 266.441 34.856C261.395 37.4281 257.713 42.3181 255.491 49.3356C248.54 71.0867 256.538 109.222 275.837 146.501C302.118 197.211 340.651 229.663 361.759 218.835C366.805 216.263 370.487 211.373 372.709 204.356C379.66 182.605 371.662 144.469 352.363 107.19C329.478 63.0531 297.357 32.7603 275.487 32.7603Z" fill="black"/>
<path d="M352.712 222.265C343.381 222.265 332.145 217.057 320.051 206.928C303.578 193.147 287.422 171.904 274.567 147.073C255.11 109.477 247.08 70.9279 254.126 48.8593C256.475 41.4925 260.411 36.3485 265.775 33.5859C272.917 29.9025 282.248 30.8234 292.754 36.2214C302.816 41.3972 313.703 50.574 324.305 62.7355C324.559 63.0213 324.527 63.4658 324.241 63.7199C323.955 63.9739 323.511 63.9422 323.257 63.6564C301.737 38.9522 279.963 27.9021 266.441 34.856C261.395 37.4281 257.713 42.3181 255.491 49.3356C248.54 71.0867 256.538 109.222 275.837 146.501C298.69 190.606 330.843 220.931 352.681 220.931C355.95 220.931 358.997 220.264 361.727 218.835C366.774 216.263 370.455 211.373 372.677 204.356C379.628 182.605 371.63 144.469 352.332 107.19C346.587 96.0766 340.111 85.6297 333.16 76.1355C332.938 75.8179 333.002 75.3734 333.319 75.1511C333.636 74.9288 334.081 74.9923 334.303 75.3099C341.318 84.8676 347.793 95.378 353.601 106.555C373.058 144.119 381.089 182.668 374.01 204.737C371.662 212.103 367.726 217.248 362.362 220.01C359.473 221.534 356.236 222.265 352.712 222.265Z" fill="black"/>
<path d="M313.526 154.296C318.489 151.717 317.535 140.038 311.394 128.209C305.254 116.381 296.253 108.882 291.29 111.46C286.327 114.039 287.282 125.718 293.422 137.547C299.562 149.375 308.563 156.874 313.526 154.296Z" fill="#F15716"/>
<path d="M311.354 155.519C305.895 155.519 298.277 148.47 292.786 137.832C288.215 129.005 286.343 119.923 288.025 114.684C288.628 112.842 289.612 111.54 290.977 110.842C296.373 108.079 305.609 115.605 312.021 127.957C316.592 136.784 318.464 145.866 316.782 151.105C316.179 152.947 315.195 154.249 313.83 154.947C313.068 155.328 312.243 155.519 311.354 155.519ZM293.453 111.636C292.786 111.636 292.151 111.763 291.612 112.048C290.564 112.588 289.802 113.604 289.326 115.097C287.771 119.987 289.58 128.687 293.992 137.197C299.832 148.47 308.625 156.059 313.164 153.709C314.211 153.169 314.973 152.153 315.449 150.661C317.004 145.739 315.163 137.07 310.783 128.56C305.641 118.685 298.277 111.636 293.453 111.636Z" fill="#F15716"/>
<path d="M347.888 210.42C339.699 210.42 329.859 205.848 319.258 196.988C304.848 184.922 290.691 166.315 279.455 144.595C262.41 111.699 255.396 77.945 261.553 58.6071C263.616 52.1295 267.076 47.6205 271.806 45.1755C282.661 39.6186 298.626 46.0328 315.639 62.7668C315.925 63.0526 315.925 63.4654 315.639 63.7512C315.354 64.037 314.941 64.037 314.655 63.7512C298.087 47.4617 282.693 41.111 272.44 46.4138C268.06 48.6683 264.854 52.8915 262.886 59.0199C256.824 78.0085 263.807 111.35 280.693 143.96C300.658 182.541 328.748 209.023 347.856 209.023C350.713 209.023 353.347 208.42 355.76 207.213C360.14 204.959 363.346 200.735 365.313 194.607C371.376 175.618 364.393 142.277 347.507 109.667C342.397 99.823 336.683 90.5828 330.526 82.2317C330.304 81.9141 330.367 81.4696 330.684 81.2473C331.002 81.025 331.446 81.0885 331.668 81.4061C337.89 89.8525 343.635 99.1245 348.777 109.032C365.821 141.928 372.836 175.682 366.678 195.02C364.615 201.497 361.155 206.006 356.426 208.451C353.823 209.753 350.967 210.42 347.888 210.42Z" fill="black"/>
<path d="M157.889 237.125C157.857 237.125 157.825 237.125 157.825 237.125L140.273 235.22C140.178 235.22 140.082 235.188 139.987 235.125C136.369 234.553 131.798 229.981 128.465 223.567C124.91 216.803 123.863 210.198 125.799 207.087L125.831 206.991L134.972 190.797C135.004 190.734 135.036 190.702 135.067 190.67L158.333 166.506C158.365 166.474 158.397 166.442 158.428 166.411L218.037 123.861L255.745 44.5727C255.84 44.414 255.967 44.287 256.158 44.2235C256.348 44.16 256.539 44.16 256.697 44.2552C257.047 44.414 257.205 44.8268 257.047 45.1761C247.493 65.657 255.047 106.365 275.805 146.438C296.595 186.574 325.575 216.295 347.888 220.391C348.237 220.455 348.491 220.772 348.46 221.153C348.428 221.503 348.11 221.757 347.761 221.788L347.158 221.757C347.127 221.757 347.095 221.757 347.063 221.757L260.538 206.928L190.963 231.822C190.931 231.822 190.867 231.854 190.836 231.854L157.984 237.094C157.952 237.125 157.921 237.125 157.889 237.125ZM140.781 233.886L157.889 235.728L190.582 230.489L260.284 205.562C260.411 205.531 260.506 205.499 260.633 205.531L338.525 218.867C317.481 209.627 292.882 182.351 274.631 147.104C256.507 112.112 248.413 76.5802 252.857 54.1305L219.275 124.623C219.212 124.718 219.148 124.814 219.053 124.877L159.349 167.522L136.178 191.559L127.037 207.753C127.037 207.785 127.005 207.817 127.005 207.817C125.355 210.389 126.466 216.74 129.671 222.932C132.814 228.996 137.353 233.569 140.463 233.791C140.59 233.791 140.685 233.823 140.781 233.886Z" fill="black"/>
<path d="M218.735 124.083L256.411 44.8584H256.442C247.079 64.9265 253.903 105.603 275.201 146.755C296.563 187.971 325.954 217.089 347.792 221.09L347.189 221.058L260.632 206.229L258.632 205.88C248.571 204.102 235.144 191.019 225.527 172.348C215.656 153.201 213.91 134.117 218.29 125.036L218.735 124.083Z" fill="white"/>
<path d="M347.792 221.788C347.761 221.788 347.792 221.788 347.792 221.788L347.157 221.757C347.126 221.757 347.094 221.757 347.062 221.757L260.506 206.928L258.506 206.579C247.873 204.705 234.383 191.083 224.893 172.698C214.132 151.804 213.593 133.196 217.656 124.75L218.132 123.797L255.808 44.6045C255.903 44.4457 256.03 44.3187 256.221 44.2552C256.411 44.1917 256.601 44.1917 256.76 44.287C257.109 44.4457 257.268 44.8585 257.109 45.2078C247.555 65.6887 255.11 106.397 275.868 146.469C296.658 186.606 325.637 216.327 347.951 220.423C348.3 220.486 348.554 220.804 348.522 221.185C348.427 221.503 348.141 221.788 347.792 221.788ZM252.793 54.1305L219.37 124.401L218.894 125.353C214.863 133.736 216.037 152.471 226.13 172.031C235.43 190.067 248.539 203.403 258.76 205.181L260.759 205.531L338.492 218.867C317.448 209.627 292.849 182.351 274.598 147.104C256.474 112.112 248.381 76.5801 252.793 54.1305Z" fill="black"/>
<path d="M156.936 237.03C156.904 237.03 156.872 237.03 156.872 237.03L140.24 235.252C140.145 235.252 140.05 235.22 139.955 235.156C136.336 234.585 131.766 230.012 128.433 223.598C124.91 216.803 123.862 210.198 125.798 207.086L125.83 206.991L134.971 190.797C135.162 190.447 135.574 190.352 135.924 190.543C136.273 190.733 136.368 191.146 136.178 191.495L127.036 207.753C127.036 207.785 127.004 207.817 127.004 207.817C125.354 210.389 126.465 216.739 129.671 222.931C132.813 228.996 137.352 233.569 140.463 233.791C140.558 233.791 140.685 233.823 140.748 233.886L156.999 235.633C157.38 235.664 157.666 236.014 157.602 236.395C157.571 236.744 157.285 237.03 156.936 237.03Z" fill="black"/>
<path d="M158.047 236.331C152.651 235.95 145.096 228.298 139.605 217.724C133.797 206.515 132.432 194.925 135.987 190.797L126.496 207.309L126.433 207.436C124.624 210.23 125.671 216.676 129.067 223.249C132.4 229.727 137.098 234.236 140.399 234.49L140.304 234.553L158.047 236.331Z" fill="white"/>
<path d="M158.047 237.03C158.015 237.03 158.015 237.03 157.983 237.03C157.856 237.03 157.698 236.998 157.571 236.998L140.24 235.252C140.145 235.252 140.05 235.22 139.955 235.156C136.336 234.585 131.766 230.012 128.433 223.598C124.91 216.803 123.862 210.198 125.798 207.086L125.83 206.991L134.178 192.448C134.495 191.622 134.908 190.892 135.416 190.289C135.638 190.003 136.051 189.971 136.336 190.162C136.622 190.384 136.717 190.765 136.527 191.083L135.352 193.083C133.48 198.132 135.321 208.039 140.145 217.311C145.382 227.44 152.524 234.839 157.634 235.506L158.015 235.537C158.396 235.569 158.682 235.918 158.65 236.3C158.682 236.744 158.396 237.03 158.047 237.03ZM140.748 233.886L152.873 235.125C148.207 232.14 143.065 225.98 138.971 218.041C135.003 210.389 133.035 202.45 133.353 196.735L127.036 207.753C127.036 207.785 127.004 207.817 127.004 207.817C125.354 210.389 126.465 216.739 129.671 222.931C132.813 228.996 137.352 233.569 140.463 233.791C140.558 233.791 140.685 233.823 140.748 233.886Z" fill="black"/>
<path d="M189.533 231.345L190.93 231.06C183.376 232.647 171.441 221.216 163.03 204.99C154.428 188.415 152.809 171.871 158.904 166.981L158.11 167.775L136.05 190.701C132.432 194.765 133.765 206.419 139.605 217.691C145.223 228.551 153.19 236.299 158.618 236.267L189.533 231.345Z" fill="black"/>
<path d="M158.586 236.998C152.81 236.998 144.779 229.218 138.971 218.041C133.067 206.61 131.575 194.67 135.511 190.257L157.158 167.775C157.539 167.267 157.983 166.823 158.459 166.442C158.745 166.219 159.158 166.251 159.412 166.505C159.666 166.791 159.666 167.204 159.412 167.458L158.174 168.76C153.762 174.666 155.952 189.78 163.665 204.673C171.981 220.74 183.598 231.758 190.708 230.425L190.803 230.393C191.184 230.329 191.533 230.552 191.628 230.933C191.692 231.314 191.47 231.663 191.089 231.758C191.057 231.758 191.025 231.758 190.994 231.79L189.692 232.044H189.66L158.745 236.966C158.682 236.966 158.618 236.998 158.586 236.998ZM155.317 171.713L136.558 191.209C133.067 195.147 134.654 206.641 140.24 217.406C145.7 227.948 153.413 235.569 158.586 235.6L185.883 231.25C178.519 228.646 169.442 218.835 162.427 205.34C155.761 192.479 153.19 179.397 155.317 171.713Z" fill="black"/>
<path d="M291.295 111.445C286.311 113.985 287.041 125.766 293.39 137.515C304.023 157.17 312.497 154.852 313.481 154.503C313.513 154.503 313.513 154.534 313.481 154.534L295.23 169.236C289.866 161.711 284.756 153.328 280.058 144.278C275.583 135.609 271.806 126.972 268.822 118.59L291.295 111.445Z" fill="black"/>
<path d="M295.231 169.935C295.199 169.935 295.167 169.935 295.136 169.935C294.945 169.903 294.786 169.808 294.659 169.649C289.168 161.933 284.058 153.486 279.456 144.627C275.044 136.117 271.235 127.449 268.188 118.875C268.124 118.685 268.124 118.494 268.22 118.335C268.315 118.177 268.442 118.05 268.632 117.986L291.105 110.842C291.454 110.746 291.835 110.905 291.962 111.254C292.088 111.604 291.962 111.985 291.644 112.144C290.565 112.683 289.771 113.763 289.295 115.351C287.74 120.336 289.644 129.163 294.056 137.261C304.436 156.44 312.434 154.249 313.291 153.931C313.609 153.804 313.99 153.963 314.148 154.249C314.307 154.534 314.243 154.947 313.99 155.169L295.675 169.776C295.548 169.871 295.39 169.935 295.231 169.935ZM269.743 119.034C272.758 127.322 276.44 135.705 280.694 143.96C285.137 152.534 290.089 160.695 295.39 168.22L311.228 155.455C307.61 155.296 300.785 152.597 292.787 137.832C288.153 129.29 286.248 120.272 287.93 114.843C288.153 114.144 288.407 113.541 288.724 112.969L269.743 119.034Z" fill="black"/>
<path d="M385.203 66.1463C399.713 58.5233 405.325 40.6263 397.738 26.1721C390.151 11.7179 372.237 6.18013 357.727 13.8031C343.216 21.4261 337.604 39.3231 345.191 53.7773C352.778 68.2315 370.692 73.7693 385.203 66.1463Z" fill="black"/>
<path d="M357.95 33.4271C359.347 31.5219 361.41 30.347 363.759 30.093C365.536 29.9025 367.187 30.2835 368.742 31.2361C369.536 31.7124 370.234 32.3157 370.901 33.0461C371.377 32.1887 371.948 31.4266 372.615 30.7916C373.916 29.5214 375.471 28.7911 377.217 28.6006C379.566 28.3466 381.851 29.0451 383.629 30.6011C385.374 32.1252 386.485 34.348 386.771 36.8565C387.057 39.4285 386.358 41.9053 384.581 44.6361C382.994 47.0811 380.581 49.6213 377.788 52.6062C376.836 53.6223 375.757 54.7654 374.646 55.972C374.36 56.2896 373.948 56.5118 373.503 56.5436C373.059 56.6071 372.646 56.4801 372.265 56.226C370.901 55.2734 369.599 54.3843 368.457 53.6223C365.092 51.336 362.172 49.3673 360.077 47.3351C357.728 45.0806 356.522 42.7944 356.236 40.2223C355.983 37.7138 356.586 35.3006 357.95 33.4271Z" fill="#F6F4F1"/>
<path d="M467.522 67.7626C478.145 57.1355 478.145 39.9055 467.522 29.2784C456.899 18.6513 439.676 18.6513 429.054 29.2784C418.431 39.9055 418.431 57.1355 429.054 67.7626C439.676 78.3897 456.9 78.3897 467.522 67.7626Z" fill="#100502"/>
<path d="M448.283 76.4209C432.92 76.4209 420.383 63.91 420.383 48.5096C420.383 33.141 432.889 20.5984 448.283 20.5984C463.677 20.5984 476.183 33.1092 476.183 48.5096C476.183 63.8783 463.677 76.4209 448.283 76.4209ZM448.283 21.9955C433.682 21.9955 421.779 33.8713 421.779 48.5096C421.779 63.1162 433.65 75.0237 448.283 75.0237C462.884 75.0237 474.786 63.1479 474.786 48.5096C474.786 33.9031 462.915 21.9955 448.283 21.9955Z" fill="#100502"/>
<path d="M455.646 51.2088C454.123 51.2088 452.79 51.9391 451.901 53.0822L442.728 49.4941C442.728 49.3671 442.759 49.2718 442.759 49.1448C442.759 48.9225 442.728 48.7003 442.696 48.478L452.091 44.1278C452.948 45.1121 454.218 45.7472 455.646 45.779C458.249 45.779 460.407 43.6515 460.407 41.016C460.407 38.3804 458.281 36.2212 455.646 36.2212C453.043 36.2212 450.885 38.3487 450.885 40.9842C450.885 41.2065 450.917 41.4287 450.949 41.651L441.553 46.0012C440.696 45.0169 439.427 44.3818 437.998 44.3501C435.396 44.3501 433.237 46.4775 433.237 49.1131C433.237 51.7486 435.364 53.9078 437.998 53.9078C439.522 53.9078 440.855 53.1775 441.744 52.0344L450.917 55.6225C450.917 55.7495 450.885 55.8448 450.885 55.9718C450.885 58.6073 453.012 60.7666 455.646 60.7666C458.249 60.7666 460.407 58.6391 460.407 56.0035C460.376 53.368 458.249 51.2405 455.646 51.2088Z" fill="#F6F4F1"/>
<path d="M456.007 154.015C468.463 145.365 471.593 128.309 462.997 115.92C454.4 103.53 437.334 100.498 424.877 109.148C412.42 117.797 409.291 134.853 417.887 147.243C426.483 159.632 443.55 162.664 456.007 154.015Z" fill="black"/>
<path d="M433.588 144.595L429.589 122.908C429.398 121.797 430.414 120.876 431.493 121.161L455.14 127.861C456.346 128.211 456.632 129.767 455.648 130.529L435.968 145.516C435.111 146.215 433.81 145.739 433.588 144.595Z" fill="#F6F4F1"/>
<path d="M441.157 242.328C454.393 235.882 459.931 219.988 453.527 206.828C447.123 193.668 431.202 188.226 417.966 194.672C404.73 201.118 399.191 217.012 405.595 230.172C411.999 243.332 427.921 248.774 441.157 242.328Z" fill="#100502"/>
<path d="M443.075 212.204C442.802 218.843 431.577 234.362 428.901 237.996C428.627 238.378 428.054 238.351 427.808 237.941C426.115 235.209 420.516 226.029 417.594 218.597C416.419 215.647 415.682 212.969 415.764 211.084C416.064 203.543 422.428 197.669 429.966 197.969C437.503 198.324 443.375 204.663 443.075 212.204Z" fill="#F6F4F1"/>
<path d="M433.837 216.086C436.28 213.643 436.28 209.681 433.837 207.238C431.395 204.794 427.435 204.794 424.993 207.238C422.55 209.681 422.55 213.643 424.993 216.086C427.435 218.529 431.395 218.529 433.837 216.086Z" fill="#100502"/>
<defs>
<clipPath id="clip0_245_624">
<rect width="29.1829" height="29.1829" fill="white" transform="translate(237.516 346.142)"/>
</clipPath>
<clipPath id="clip1_245_624">
<rect width="57.0087" height="57.0087" fill="white" transform="translate(87.3281 253.729) rotate(45)"/>
</clipPath>
</defs>
</svg>
