<svg width="20" height="20" viewBox="0 0 20 20" fill="none" xmlns="http://www.w3.org/2000/svg">
<path fill-rule="evenodd" clip-rule="evenodd" d="M10.0627 1.79481C12.6015 1.79481 12.9021 1.80594 13.9006 1.85046C14.8285 1.89127 15.3296 2.0471 15.6636 2.17697C16.1054 2.34764 16.4246 2.55542 16.755 2.88563C17.089 3.21956 17.2931 3.53494 17.4639 3.97646C17.5938 4.31039 17.7496 4.81499 17.7905 5.73885C17.835 6.74064 17.8462 7.04117 17.8462 9.57531C17.8462 12.1132 17.835 12.4137 17.7905 13.4117C17.7496 14.3393 17.5938 14.8402 17.4639 15.1742C17.2931 15.6157 17.0852 15.9348 16.755 16.2649C16.4209 16.5989 16.1054 16.803 15.6636 16.9737C15.3296 17.1035 14.8248 17.2593 13.9006 17.3002C12.8984 17.3447 12.5978 17.3558 10.0627 17.3558C7.52379 17.3558 7.22314 17.3447 6.22468 17.3002C5.29675 17.2593 4.79565 17.1035 4.4616 16.9737C4.0199 16.803 3.70068 16.5952 3.37034 16.2649C3.03629 15.931 2.83214 15.6157 2.6614 15.1742C2.53148 14.8402 2.3756 14.3356 2.33476 13.4117C2.29022 12.41 2.27908 12.1095 2.27908 9.57531C2.27908 7.03746 2.29022 6.73693 2.33476 5.73885C2.3756 4.81128 2.53148 4.31039 2.6614 3.97646C2.83214 3.53494 3.03999 3.21585 3.37034 2.88563C3.7044 2.55171 4.0199 2.34764 4.4616 2.17697C4.79565 2.0471 5.30046 1.89127 6.22468 1.85046C7.22314 1.80594 7.52379 1.79481 10.0627 1.79481ZM10.0627 0.0843506C7.48297 0.0843506 7.16004 0.09549 6.14673 0.14001C5.13714 0.184529 4.44304 0.347784 3.84174 0.581531C3.21445 0.826418 2.68367 1.14921 2.1566 1.67978C1.62582 2.20665 1.3029 2.73722 1.05792 3.36055C0.824085 3.96533 0.660764 4.65544 0.616225 5.66465C0.571686 6.68127 0.560547 7.00406 0.560547 9.58272C0.560547 12.1614 0.571686 12.4842 0.616225 13.4971C0.660764 14.5063 0.824085 15.2001 1.05792 15.8012C1.3029 16.4282 1.62582 16.9589 2.1566 17.4856C2.68367 18.0125 3.21445 18.3391 3.83802 18.5802C4.44304 18.814 5.13342 18.9772 6.14302 19.0217C7.15634 19.0662 7.47925 19.0774 10.059 19.0774C12.6386 19.0774 12.9615 19.0662 13.9749 19.0217C14.9844 18.9772 15.6785 18.814 16.2798 18.5802C16.9034 18.3391 17.4342 18.0125 17.9612 17.4856C18.4883 16.9589 18.8149 16.4282 19.0563 15.8049C19.2901 15.2001 19.4534 14.51 19.4979 13.5008C19.5425 12.4879 19.5536 12.1651 19.5536 9.58642C19.5536 7.00778 19.5425 6.68498 19.4979 5.67207C19.4534 4.66287 19.2901 3.96904 19.0563 3.36797C18.8224 2.73722 18.4995 2.20665 17.9687 1.67978C17.4416 1.15292 16.9108 0.826418 16.2873 0.585245C15.6822 0.351497 14.9918 0.188243 13.9823 0.143723C12.9652 0.09549 12.6423 0.0843506 10.0627 0.0843506ZM10.0626 4.70372C7.36788 4.70372 5.18166 6.8891 5.18166 9.58282C5.18166 12.2764 7.36788 14.4618 10.0626 14.4618C12.7573 14.4618 14.9436 12.2764 14.9436 9.58282C14.9436 6.8891 12.7573 4.70372 10.0626 4.70372ZM10.0626 12.7476C8.31436 12.7476 6.89649 11.3304 6.89649 9.58282C6.89649 7.83527 8.31436 6.41788 10.0626 6.41788C11.8109 6.41788 13.2287 7.83527 13.2287 9.58282C13.2287 11.3304 11.8109 12.7476 10.0626 12.7476ZM15.1367 5.64983C15.7639 5.64983 16.2761 5.14152 16.2761 4.51077C16.2761 3.88373 15.7639 3.3717 15.1367 3.3717C14.5093 3.3717 13.9971 3.88001 13.9971 4.51077C13.9971 5.13781 14.5056 5.64983 15.1367 5.64983Z" fill="white"/>
</svg>
