<svg width="1280" height="48" viewBox="0 0 1280 48" fill="none" xmlns="http://www.w3.org/2000/svg">
<g style="mix-blend-mode:luminosity">
<path fill-rule="evenodd" clip-rule="evenodd" d="M46.6508 37.8069C39.4708 42.4973 29.0639 44.9998 20.1036 44.9998C7.53999 44.9998 -3.77053 40.8814 -12.3274 34.0316C-12.9997 33.493 -12.3973 32.7589 -11.5906 33.1784C-2.35605 37.9403 9.06204 40.8051 20.8566 40.8051C28.8111 40.8051 37.5615 39.3465 45.6074 36.3196C46.8229 35.862 47.8394 37.0251 46.6508 37.8069Z" fill="#FF9900"/>
<path fill-rule="evenodd" clip-rule="evenodd" d="M49.6359 34.78C48.7215 33.7409 43.5692 34.2891 41.2565 34.5322C40.552 34.6084 40.4444 34.065 41.079 33.6741C45.1827 31.1144 51.9162 31.8533 52.7015 32.7113C53.4867 33.574 52.4971 39.5563 48.6409 42.4115C48.0493 42.8501 47.4846 42.6165 47.7481 42.035C48.614 40.1187 50.5555 35.8239 49.6359 34.78Z" fill="#FF9900"/>
<path fill-rule="evenodd" clip-rule="evenodd" d="M41.4182 15.6036V13.1154C41.4182 12.7388 41.7409 12.4862 42.1282 12.4862H54.6972C55.1006 12.4862 55.4233 12.7436 55.4233 13.1154V15.2461C55.4179 15.6036 55.0791 16.0708 54.4767 16.8096L47.9636 25.0513C50.3838 24.9988 52.9385 25.3182 55.1329 26.4145C55.6276 26.6624 55.7621 27.0247 55.7998 27.3822V30.0373C55.7998 30.3995 55.348 30.8238 54.8747 30.6045C51.0077 28.8074 45.8715 28.612 41.5957 30.6236C41.1601 30.8333 40.7029 30.4138 40.7029 30.0516V27.53C40.7029 27.1248 40.7083 26.4336 41.1655 25.8187L48.7112 16.2281H42.1443C41.7409 16.2281 41.4182 15.9754 41.4182 15.6036Z" fill="black"/>
<path fill-rule="evenodd" clip-rule="evenodd" d="M-4.43162 31.1289H-8.25557C-8.62129 31.105 -8.91172 30.8619 -8.93861 30.5521V13.1583C-8.93861 12.8104 -8.61053 12.5339 -8.20179 12.5339H-4.63599C-4.26488 12.5482 -3.96908 12.8008 -3.94219 13.1154V15.3892H-3.87227C-2.94183 13.1917 -1.19389 12.1669 1.16179 12.1669C3.55513 12.1669 5.05029 13.1917 6.12594 15.3892C7.05101 13.1917 9.15392 12.1669 11.4074 12.1669C13.0101 12.1669 14.7635 12.7532 15.8337 14.0688C17.0438 15.5322 16.7965 17.6581 16.7965 19.5219L16.7911 30.4997C16.7911 30.8476 16.463 31.1289 16.0543 31.1289H12.2357C11.8538 31.105 11.5473 30.8333 11.5473 30.4997V21.2808C11.5473 20.5468 11.6225 18.7163 11.4397 18.0204C11.1546 16.8526 10.2995 16.5236 9.19156 16.5236C8.2665 16.5236 7.29841 17.0718 6.9058 17.9489C6.51318 18.826 6.55083 20.2941 6.55083 21.2808V30.4997C6.55083 30.8476 6.22276 31.1289 5.81401 31.1289H1.99543C1.60819 31.105 1.30701 30.8333 1.30701 30.4997L1.30164 21.2808C1.30164 19.3408 1.66198 16.4855 -1.05405 16.4855C-3.80235 16.4855 -3.69479 19.2693 -3.69479 21.2808V30.4997C-3.69479 30.8476 -4.02287 31.1289 -4.43162 31.1289Z" fill="black"/>
<path fill-rule="evenodd" clip-rule="evenodd" d="M66.2442 12.1669C71.9183 12.1669 74.9893 16.4855 74.9893 21.9768C74.9893 27.2821 71.5956 31.4911 66.2442 31.4911C60.6723 31.4911 57.639 27.1725 57.639 21.7909C57.639 16.3759 60.71 12.1669 66.2442 12.1669ZM66.2765 15.7181C63.4583 15.7181 63.2808 19.1215 63.2808 21.2427C63.2808 23.3686 63.2431 27.9066 66.2442 27.9066C69.2077 27.9066 69.3475 24.2457 69.3475 22.0149C69.3475 20.5468 69.2776 18.7926 68.7774 17.4007C68.3471 16.19 67.492 15.7181 66.2765 15.7181Z" fill="black"/>
<path fill-rule="evenodd" clip-rule="evenodd" d="M82.3469 31.1289H78.5391C78.1573 31.105 77.8507 30.8333 77.8507 30.4997L77.8453 13.1011C77.8776 12.7818 78.1949 12.5339 78.5822 12.5339H82.1264C82.4599 12.5482 82.7342 12.7484 82.8095 13.0201V15.6799H82.8794C83.9497 13.3013 85.4502 12.1669 88.0909 12.1669C89.8066 12.1669 91.4792 12.715 92.5549 14.2166C93.5553 15.6084 93.5553 17.9489 93.5553 19.6315V30.5807C93.5122 30.8858 93.1949 31.1289 92.8184 31.1289H88.9837C88.6341 31.105 88.3437 30.8762 88.3061 30.5807V21.1331C88.3061 19.2311 88.5535 16.4474 85.9127 16.4474C84.9823 16.4474 84.1272 17.0003 83.7023 17.8393C83.1644 18.9022 83.0945 19.9605 83.0945 21.1331V30.4997C83.0891 30.8476 82.7557 31.1289 82.3469 31.1289Z" fill="black"/>
<path fill-rule="evenodd" clip-rule="evenodd" d="M31.3985 22.8204C31.3985 24.1408 31.4362 25.2419 30.6832 26.4146C30.0755 27.3679 29.1074 27.9542 28.0371 27.9542C26.5688 27.9542 25.7083 26.9627 25.7083 25.4993C25.7083 22.6107 28.6287 22.0864 31.3985 22.0864V22.8204ZM35.2548 31.0812C35.002 31.2814 34.6363 31.2957 34.3512 31.1622C33.0819 30.2279 32.8507 29.7942 32.1569 28.9028C30.0593 30.7999 28.5696 31.3672 25.8535 31.3672C22.6319 31.3672 20.131 29.6083 20.131 26.0857C20.131 23.3353 21.8091 21.4619 24.2078 20.5467C26.2838 19.7364 29.1827 19.5934 31.3985 19.3693V18.9308C31.3985 18.1252 31.4685 17.1719 30.9306 16.476C30.4681 15.8515 29.5753 15.5941 28.7847 15.5941C27.3272 15.5941 26.031 16.2567 25.7137 17.6295C25.6492 17.9346 25.3964 18.2349 25.0468 18.2492L21.3412 17.8964C21.0292 17.8345 20.6796 17.6104 20.7711 17.1862C21.6208 13.2012 25.6868 12 29.3225 12C31.1834 12 33.6144 12.4385 35.0827 13.6874C36.9435 15.2271 36.7661 17.2815 36.7661 19.5171V24.7986C36.7661 26.386 37.5083 27.0819 38.2074 27.9399C38.4495 28.245 38.5032 28.612 38.1913 28.8408C37.4114 29.4176 36.0238 30.4901 35.2601 31.0907L35.2548 31.0812Z" fill="black"/>
<path fill-rule="evenodd" clip-rule="evenodd" d="M-18.7325 22.8204C-18.7325 24.1408 -18.6949 25.2419 -19.4478 26.4145C-20.0556 27.3679 -21.0183 27.9542 -22.0939 27.9542C-23.5622 27.9542 -24.4174 26.9627 -24.4174 25.4993C-24.4174 22.6107 -21.4969 22.0864 -18.7325 22.0864V22.8204ZM-14.8763 31.0812C-15.1291 31.2814 -15.4948 31.2957 -15.7798 31.1622C-17.0491 30.2279 -17.275 29.7941 -17.9742 28.9028C-20.0717 30.7999 -21.5561 31.3672 -24.2775 31.3672C-27.4937 31.3672 -30 29.6082 -30 26.0856C-30 23.3352 -28.3166 21.4619 -25.9233 20.5467C-23.8473 19.7364 -20.9484 19.5934 -18.7325 19.3693V18.9308C-18.7325 18.1252 -18.6626 17.1719 -19.195 16.4759C-19.663 15.8515 -20.5557 15.5941 -21.341 15.5941C-22.7985 15.5941 -24.1 16.2567 -24.4174 17.6295C-24.4819 17.9346 -24.7347 18.2349 -25.0789 18.2492L-28.7899 17.8964C-29.1018 17.8345 -29.446 17.6104 -29.36 17.1862C-28.5048 13.2012 -24.4442 12 -20.8085 12C-18.9476 12 -16.5167 12.4385 -15.0484 13.6874C-13.1875 15.2271 -13.365 17.2815 -13.365 19.5171V24.7986C-13.365 26.3859 -12.6228 27.0819 -11.9236 27.9399C-11.6762 28.245 -11.6224 28.612 -11.9344 28.8408C-12.7142 29.4176 -14.1018 30.4901 -14.8655 31.0907L-14.8763 31.0812Z" fill="black"/>
</g>
<g style="mix-blend-mode:luminosity" clip-path="url(#clip0_245_1102)">
<path fill-rule="evenodd" clip-rule="evenodd" d="M335.591 30.5633C330.336 38.4606 322.012 36.1691 319.513 34.3749C318.449 35.0147 316.583 36.417 314.096 36.255C308.798 35.9104 306.901 29.2007 306.901 29.2007C306.939 29.2275 305.323 29.6949 304.449 29.6866C304.438 31.6542 302.519 36.3546 297.34 36.2945C291.528 36.2273 290.346 28.5531 290.346 28.5531C290.346 28.5531 289.768 29.2649 287.569 29.9739C287.679 28.4622 287.599 36.0644 280.633 36.1761C275.126 36.2646 273.639 28.4348 273.639 28.4348C273.639 28.4348 272.684 29.3143 270.832 29.6194C270.95 28.0831 270.759 36.2019 263.792 36.1761C259.084 36.1588 257.475 31.353 257.6 30.686C257.76 29.8359 256.009 36.2957 251.436 36.195C249.549 36.1459 248.142 34.9349 247.259 33.3204C246.077 34.5189 244.361 36.195 242.436 36.195C238.981 36.195 237.458 33.6337 237.716 26.3179C237.738 25.4502 237.667 25.109 236.694 24.9792C236.11 24.8928 235.511 24.7292 234.879 24.643C234.676 25.243 232.955 35.9998 227.038 36.204C225.053 36.2725 223.968 34.7485 223.076 33.6174C221.71 35.2194 219.906 36.255 217.337 36.255C212.984 36.255 210.019 33.1365 210.019 29.2895C210.019 25.4425 212.984 22.3242 217.337 22.3242C218.106 22.3242 218.322 22.422 219.025 22.6038C217.58 10.9365 220.994 9.11303 223.981 9.11303C226.849 9.11303 231.748 15.012 224.854 29.9751C226.385 34.4381 229.684 34.1857 231.27 24.9982C231.593 23.1307 230.73 20.6105 232.072 20.2588C234.525 19.616 234.785 21.5446 235.936 21.866C237.152 22.2056 237.862 22.1724 239.03 22.3885C241.025 22.7339 241.803 23.6838 241.56 25.7996C241.268 28.4767 240.758 32.3732 242.315 32.8481C243.438 33.1931 245.488 31.1293 245.847 30.0001C246.207 28.871 246.282 28.4845 246.314 27.6563C246.363 25.8861 246.424 24.5886 246.764 23.2499C246.91 22.7319 247.076 22.3888 247.737 22.3654C248.282 22.3531 249.277 22.2079 249.715 22.51C250.298 22.8988 250.225 23.2933 250.158 24.3316C249.479 39.1353 254.705 31.7452 256.264 25.8279C255.709 19.1369 256.09 9.23555 260.821 9.06949C263.281 8.98313 264.369 10.7301 264.488 12.034C264.827 15.7168 262.931 21.8172 260.438 25.9197C259.013 34.2907 266.668 35.9459 267.892 29.2642C265.889 28.4202 263.725 25.0044 265.486 23.3397C266.474 22.4055 270.588 23.7476 270.655 26.6748C272.673 26.1965 272.943 25.1867 272.971 25.354C272.416 18.663 272.931 9.23564 277.662 9.06957C280.122 8.98321 281.209 10.7301 281.329 12.0341C281.667 15.7168 279.772 21.8173 277.279 25.9199C275.854 34.2907 283.509 35.946 284.732 29.2643C283.25 29.0107 280.12 25.3775 281.926 23.3398C282.891 22.2509 286.99 24.5154 287.448 26.7717C289.387 26.2855 289.65 25.3078 289.678 25.4724C289.123 18.7816 289.638 9.35422 294.369 9.18815C296.829 9.10179 297.916 10.8487 298.036 12.1527C298.374 15.8354 296.479 21.936 293.986 26.0385C292.561 34.4095 300.216 36.0644 301.44 29.3827C299.402 29.082 296.506 25.2458 298.837 23.2833C299.768 22.4992 303.326 24.5346 304.159 26.8568C305.316 26.8173 306.037 26.4636 306.191 26.4279C304.344 18.573 305.719 9.14836 310.808 9.06969C313.559 9.02721 316.249 10.3877 315.068 17.8606C313.941 24.9906 309.891 27.9827 309.901 28.0285C310.136 28.8827 312.215 36.0312 317.448 32.2594C317.177 31.7157 316.906 31.1603 316.754 30.4874C315.887 26.5677 317.591 22.1404 322.222 21.4249C324.875 21.0149 327.375 22.1598 327.77 24.741C328.42 28.9645 324.117 32.0233 322.481 32.6868C321.748 32.3178 329.124 36.5107 333.502 28.108C333.756 27.6282 334.062 27.6689 334.458 27.9162C334.738 28.0908 336.333 29.4299 335.591 30.5633ZM220.503 28.2517C220.28 27.6615 219.823 26.361 219.661 25.7976C218.771 25.1114 218.136 25 216.993 25C214.454 25 212.959 27.0809 212.959 29.3247C212.959 31.5684 214.587 33.6496 217.127 33.6496C219.327 33.6496 221.002 32.3235 221.513 30.4462C221.156 29.7143 220.801 29.0417 220.503 28.2517ZM223.919 12.2015C222.134 12.2015 221.529 15.974 221.647 19.1924C221.751 22.0378 222.648 24.5428 223.113 25.6653C223.231 25.8059 223.209 25.7144 223.315 25.8636C226.413 19.8472 225.128 12.2015 223.919 12.2015ZM261.075 12.32C258.769 12.0855 258.784 20.6001 259.07 22.51C260.268 20.8118 262.349 12.7772 261.075 12.32ZM277.916 12.32C275.61 12.0855 275.625 20.6001 275.911 22.51C277.109 20.8118 279.19 12.7772 277.916 12.32ZM294.623 12.4384C292.317 12.204 292.332 20.7186 292.618 22.6287C293.816 20.9303 295.897 12.8956 294.623 12.4384ZM311.063 11.8215C307.47 12.461 308.306 23.0789 308.852 24.9412C313.085 19.789 313.172 11.628 311.063 11.8215ZM324.529 25.0903C324.347 24.4133 323.433 24.0515 322.803 24.1407C320.998 24.359 319.249 26.3505 319.926 29.3824C320.077 30.0576 320.454 30.6792 320.448 30.6585C324.486 28.2577 324.829 26.3659 324.529 25.0903ZM248.445 20.0218C247.929 20.0219 247.425 19.8864 246.996 19.6326C246.567 19.3787 246.233 19.0179 246.036 18.5957C245.838 18.1735 245.787 17.7089 245.887 17.2607C245.988 16.8124 246.236 16.4007 246.601 16.0775C246.965 15.7543 247.43 15.5342 247.936 15.4451C248.441 15.3559 248.965 15.4016 249.442 15.5765C249.918 15.7514 250.325 16.0476 250.612 16.4276C250.898 16.8076 251.051 17.2544 251.051 17.7114C251.051 18.0148 250.984 18.3152 250.853 18.5955C250.722 18.8758 250.53 19.1305 250.288 19.345C250.046 19.5596 249.758 19.7298 249.442 19.8459C249.126 19.962 248.787 20.0218 248.445 20.0218Z" fill="#0D0C22"/>
</g>
<g style="mix-blend-mode:luminosity" clip-path="url(#clip1_245_1102)">
<path d="M466.181 13.1062V22.1939H456.764V13.1062H452.293V34.7995H456.764V26.0069H466.181V34.7995H470.651V13.1062H466.181Z" fill="#33475B"/>
<path d="M484.96 27.7867C484.96 28.6561 484.57 29.4899 483.876 30.1046C483.183 30.7194 482.242 31.0647 481.261 31.0647C480.28 31.0647 479.339 30.7194 478.646 30.1046C477.952 29.4899 477.562 28.6561 477.562 27.7867V18.4951H473.322V27.7867C473.322 29.6511 474.157 31.4392 475.645 32.7575C477.132 34.0759 479.15 34.8165 481.253 34.8165C483.357 34.8165 485.375 34.0759 486.862 32.7575C488.349 31.4392 489.185 29.6511 489.185 27.7867V18.4951H484.96V27.7867Z" fill="#33475B"/>
<path d="M516.381 19.4527C516.381 17.5482 517.803 16.9444 519.36 16.9444C520.615 16.9444 522.273 17.7908 523.358 18.8178L526.135 15.9174C524.749 14.2555 521.936 13.1062 519.634 13.1062C515.034 13.1062 511.707 15.4942 511.707 19.4527C511.707 26.797 521.835 24.4673 521.835 28.5773C521.835 29.845 520.447 30.9652 518.856 30.9652C516.348 30.9652 515.536 29.878 514.383 28.7287L511.301 31.569C513.273 33.7143 515.704 34.8034 518.618 34.8034C522.988 34.8034 526.503 32.3863 526.503 28.6084C526.503 20.4545 516.375 22.988 516.375 19.4527" fill="#33475B"/>
<path d="M579.042 31.3339C576.536 31.3339 575.824 30.3729 575.824 28.9013V22.3878H579.719V19.0874H575.824V14.7329L571.525 16.4432V29.7108C571.525 33.1044 574.166 34.8148 577.789 34.8148C578.358 34.824 578.925 34.7837 579.485 34.6944L580.534 31.2717C580.061 31.3008 579.518 31.33 579.042 31.33" fill="#33475B"/>
<path d="M501.102 18.6046C499.002 18.6046 497.536 19.1443 496.119 20.3771V13.2366H491.872V26.4712C491.872 31.4257 495.913 34.8193 500.454 34.8193C505.492 34.8193 509.924 31.3655 509.924 26.7139C509.924 22.1205 505.845 18.6066 501.102 18.6066V18.6046ZM501.076 31.0316C500.123 31.0316 499.191 30.7811 498.399 30.3118C497.606 29.8425 496.989 29.1754 496.624 28.395C496.259 27.6145 496.164 26.7558 496.35 25.9272C496.536 25.0987 496.995 24.3377 497.669 23.7404C498.343 23.143 499.201 22.7363 500.136 22.5715C501.071 22.4067 502.04 22.4912 502.92 22.8145C503.801 23.1378 504.554 23.6852 505.083 24.3876C505.613 25.09 505.895 25.9158 505.895 26.7605C505.895 27.8933 505.388 28.9796 504.484 29.7806C503.58 30.5816 502.354 31.0316 501.076 31.0316Z" fill="#33475B"/>
<path d="M547.221 26.515C547.221 21.8557 542.798 18.4096 537.751 18.4096C533.21 18.4096 529.169 21.8032 529.169 26.7577V40.0001H533.416V32.8499C534.831 34.0807 536.299 34.6224 538.398 34.6224C543.14 34.6224 547.219 31.1103 547.219 26.515H547.221ZM543.199 26.4684C543.199 27.3132 542.916 28.139 542.387 28.8413C541.857 29.5437 541.105 30.0912 540.224 30.4144C539.344 30.7377 538.375 30.8223 537.44 30.6575C536.505 30.4927 535.646 30.0859 534.972 29.4886C534.298 28.8912 533.839 28.1302 533.654 27.3017C533.468 26.4732 533.563 25.6144 533.928 24.834C534.292 24.0535 534.91 23.3865 535.703 22.9171C536.495 22.4478 537.427 22.1973 538.38 22.1973C539.658 22.1973 540.884 22.6473 541.788 23.4483C542.691 24.2493 543.199 25.3357 543.199 26.4684Z" fill="#33475B"/>
<path d="M560.9 18.3496V14.6066C561.458 14.3756 561.93 14.0088 562.262 13.5489C562.594 13.089 562.772 12.555 562.775 12.009V11.9216C562.772 11.1587 562.429 10.4276 561.821 9.88807C561.212 9.34858 560.387 9.04458 559.526 9.04254H559.428C558.567 9.04458 557.742 9.34858 557.133 9.88807C556.525 10.4276 556.182 11.1587 556.179 11.9216V12.009C556.182 12.555 556.36 13.089 556.692 13.5489C557.024 14.0088 557.496 14.3756 558.054 14.6066V18.3496C556.45 18.5671 554.938 19.1565 553.673 20.0581L542.077 12.0614C542.159 11.7976 542.204 11.5256 542.208 11.2519C542.209 10.6095 541.995 9.98128 541.593 9.44673C541.191 8.91217 540.619 8.49527 539.95 8.24873C539.281 8.00219 538.544 7.93708 537.833 8.06166C537.122 8.18623 536.468 8.49487 535.955 8.94857C535.442 9.40226 535.092 9.98063 534.95 10.6105C534.808 11.2404 534.88 11.8936 535.156 12.4873C535.433 13.0811 535.902 13.5889 536.504 13.9464C537.106 14.3039 537.814 14.4952 538.539 14.496C539.176 14.4939 539.801 14.3432 540.351 14.0591L551.752 21.9257C550.725 23.2989 550.19 24.9146 550.215 26.5619C550.24 28.2091 550.826 29.8113 551.895 31.1591L548.425 34.2343C548.146 34.1557 547.856 34.1138 547.564 34.11C546.968 34.11 546.386 34.2666 545.891 34.5599C545.395 34.8532 545.009 35.2701 544.781 35.7579C544.553 36.2457 544.494 36.7824 544.61 37.3002C544.726 37.818 545.013 38.2937 545.434 38.667C545.855 39.0403 546.392 39.2946 546.976 39.3976C547.561 39.5006 548.166 39.4477 548.717 39.2457C549.267 39.0436 549.737 38.7015 550.068 38.2625C550.399 37.8235 550.576 37.3074 550.576 36.7794C550.572 36.5204 550.525 36.2633 550.436 36.0165L553.868 32.9743C554.989 33.7328 556.29 34.2544 557.673 34.4993C559.055 34.7441 560.483 34.7058 561.846 34.3871C563.209 34.0685 564.472 33.478 565.539 32.6607C566.606 31.8434 567.447 30.8209 568 29.6713C568.553 28.5217 568.802 27.2754 568.728 26.0275C568.655 24.7796 568.26 23.5631 567.575 22.4709C566.89 21.3786 565.933 20.4395 564.776 19.7253C563.619 19.0111 562.293 18.5405 560.9 18.3496ZM559.478 30.6621C558.539 30.6621 557.621 30.4152 556.84 29.9527C556.059 29.4902 555.45 28.8329 555.091 28.0638C554.731 27.2947 554.637 26.4484 554.82 25.632C555.004 24.8155 555.456 24.0655 556.12 23.4769C556.784 22.8883 557.63 22.4874 558.552 22.325C559.473 22.1626 560.428 22.2459 561.295 22.5645C562.163 22.8831 562.905 23.4225 563.427 24.1147C563.949 24.8069 564.227 25.6206 564.227 26.4531C564.227 27.5694 563.727 28.6399 562.836 29.4293C561.946 30.2186 560.738 30.6621 559.478 30.6621Z" fill="#FF7A59"/>
</g>
<g style="mix-blend-mode:luminosity" clip-path="url(#clip2_245_1102)">
<path d="M747.525 34.7749V20.2199H747.818L759.772 34.7749H763.533V13.4006H759.354V27.919H759.061L747.107 13.4006H743.345V34.7749H747.525ZM775.362 35.1049C780.879 35.1049 784.265 31.9519 784.265 26.6725C784.265 21.4297 780.879 18.2401 775.362 18.2401C769.886 18.2401 766.459 21.4297 766.459 26.6725C766.501 31.9519 769.845 35.1049 775.362 35.1049ZM775.362 32.0252C772.436 32.0252 770.764 30.0821 770.764 26.6725C770.764 23.2995 772.436 21.3198 775.362 21.3198C778.288 21.3198 779.959 23.2995 779.959 26.6725C779.959 30.0821 778.288 32.0252 775.362 32.0252ZM788.068 14.6105V18.68H785.142V21.6131H788.068V30.4487C788.068 33.6017 789.74 34.8483 794.003 34.8483C794.797 34.8483 795.592 34.7749 796.219 34.6649V31.8053C795.717 31.8419 795.383 31.8786 794.797 31.8786C793.042 31.8786 792.248 31.182 792.248 29.5688V21.6131H796.219V18.68H792.248V14.6105H788.068ZM798.726 34.7749H802.906V18.5701H798.726V34.7749ZM800.816 15.8937C802.196 15.8937 803.324 14.9038 803.324 13.6939C803.324 12.4474 802.196 11.4575 800.816 11.4575C799.437 11.4575 798.308 12.4474 798.308 13.6939C798.308 14.9038 799.437 15.8937 800.816 15.8937ZM814.358 35.1049C819.876 35.1049 823.261 31.9519 823.261 26.6725C823.261 21.4297 819.876 18.2401 814.358 18.2401C808.883 18.2401 805.456 21.4297 805.456 26.6725C805.456 31.9519 808.799 35.1049 814.358 35.1049ZM814.358 32.0252C811.433 32.0252 809.761 30.0821 809.761 26.6725C809.761 23.2995 811.433 21.3198 814.358 21.3198C817.242 21.3198 818.956 23.2995 818.956 26.6725C818.914 30.0821 817.242 32.0252 814.358 32.0252ZM825.727 34.7749H829.907V25.3526C829.907 22.9696 831.495 21.4664 833.961 21.4664C836.511 21.4664 837.681 22.7129 837.681 25.1693V34.7749H841.861V24.2894C841.861 20.4032 839.604 18.2401 835.508 18.2401C832.749 18.2401 830.91 19.34 830.032 21.1731H829.74V18.5701H825.685C825.727 18.5701 825.727 34.7749 825.727 34.7749Z" fill="black"/>
<path fill-rule="evenodd" clip-rule="evenodd" d="M703.269 12.0326C704.486 12.9024 704.926 12.8337 707.203 12.6964L728.66 11.5519C729.126 11.5519 728.738 11.1399 728.583 11.0941L725.011 8.82806C724.338 8.37028 723.406 7.82093 721.672 7.95826L700.914 9.30874C700.163 9.37741 700.008 9.72075 700.318 9.97254L703.269 12.0326ZM704.563 16.4502V36.4098C704.563 37.4857 705.159 37.8748 706.53 37.8061L730.11 36.593C731.482 36.5243 731.637 35.7918 731.637 34.922V15.0998C731.637 14.23 731.249 13.7493 730.421 13.818L705.78 15.0998C704.874 15.1684 704.563 15.5804 704.563 16.4502ZM727.832 17.5261C727.988 18.1212 727.832 18.7392 727.159 18.8079L726.02 19.0139V33.7547C725.037 34.2125 724.131 34.4871 723.354 34.4871C722.138 34.4871 721.827 34.1438 720.921 33.1367L713.493 22.8135V32.7933L715.848 33.2511C715.848 33.2511 715.848 34.4642 713.959 34.4642L708.73 34.7389C708.575 34.4642 708.73 33.8005 709.248 33.6631L710.62 33.3198V20.1355L708.73 19.9981C708.575 19.403 708.963 18.5332 710.025 18.4645L715.641 18.1212L723.38 28.5588V19.3343L721.413 19.1283C721.258 18.3959 721.879 17.8465 722.63 17.7778L727.832 17.5261ZM699.18 7.47759L720.792 6.08133C723.432 5.87532 724.131 6.01266 725.787 7.08847L732.672 11.3688C733.811 12.1013 734.199 12.3073 734.199 13.1084V36.6159C734.199 38.0808 733.604 38.9506 731.482 39.0879L706.401 40.4384C704.796 40.5071 704.046 40.3011 703.217 39.3626L698.118 33.5258C697.212 32.45 696.824 31.6488 696.824 30.7104V9.81231C696.824 8.59917 697.445 7.61492 699.18 7.47759Z" fill="black"/>
</g>
<g style="mix-blend-mode:luminosity" clip-path="url(#clip3_245_1102)">
<path d="M975.502 38.0663C973.618 38.3595 971.701 38.4474 969.718 38.6816L963.668 22.9786V39.3555C961.784 39.5313 960.065 39.7656 958.28 40V10H963.305L970.18 27.0217V10H975.502V38.0663ZM985.915 20.9863C987.964 20.9863 991.105 20.8984 992.989 20.8984V25.5858C990.642 25.5858 987.898 25.5858 985.915 25.6737V32.6465C989.022 32.4708 992.129 32.2362 995.269 32.1483V36.6597L980.626 37.6854V10H995.269V14.6875H985.915V20.9863ZM1014.94 14.6876H1009.45V36.2501C1007.67 36.2501 1005.88 36.2501 1004.16 36.3085V14.6876H998.675V10H1014.94L1014.94 14.6876ZM1023.53 20.6642H1030.77V25.3516H1023.53V35.9864H1018.34V10H1033.12V14.6875H1023.53V20.6642ZM1041.71 31.8848C1044.72 31.9432 1047.76 32.1486 1050.7 32.2948V36.9238C1045.98 36.66 1041.25 36.3966 1036.42 36.3085V10H1041.71V31.8848ZM1055.17 37.2461C1056.85 37.3341 1058.64 37.422 1060.36 37.5975V10H1055.17V37.2461ZM1083.53 10L1076.82 24.2676L1083.53 40C1081.54 39.7656 1079.56 39.4433 1077.58 39.1503L1073.78 30.4786L1069.91 38.4474C1067.99 38.1542 1066.14 38.0663 1064.22 37.8319L1071.03 24.0917L1064.88 10H1070.57L1074.04 17.8809L1077.74 10H1083.53V10Z" fill="#D81F26"/>
</g>
<g style="mix-blend-mode:luminosity" clip-path="url(#clip4_245_1102)">
<path fill-rule="evenodd" clip-rule="evenodd" d="M1289.36 20.5972C1289.78 21.2429 1289.92 21.9774 1289.97 22.8032L1290.03 23.9039V31.6007L1290.09 32.7025C1290.21 34.502 1291.71 35.8325 1293.75 35.9457L1294.99 36V23.9039L1295.05 22.8032C1295.1 21.9867 1295.24 21.2382 1295.67 20.588C1296.1 19.921 1296.73 19.3677 1297.49 18.9835C1298.24 18.5993 1299.1 18.3978 1299.97 18.3992C1300.84 18.4006 1301.69 18.6049 1302.44 18.9915C1303.2 19.3781 1303.82 19.9335 1304.26 20.6018C1304.68 21.2475 1304.81 21.9959 1304.86 22.8032L1304.92 23.9005V31.6007L1304.98 32.7025C1305.11 34.5112 1306.6 35.8418 1308.65 35.9457L1309.89 36V22.8032C1309.89 20.4697 1308.84 18.2317 1306.98 16.5813C1305.12 14.9309 1302.59 14.0032 1299.96 14.0023C1298.55 14.001 1297.16 14.2662 1295.87 14.7803C1294.59 15.2944 1293.44 16.0454 1292.51 16.9833C1291.58 16.0458 1290.43 15.2949 1289.15 14.7807C1287.87 14.2665 1286.47 14.0007 1285.06 14.0012C1283 14.0012 1281.09 14.5555 1279.5 15.513C1278.54 14.5567 1276.37 14.0012 1275.13 14.0012V36L1276.37 35.9457C1278.45 35.8244 1279.95 34.5297 1280.03 32.7025L1280.1 31.6007V23.9039L1280.16 22.8032C1280.21 21.9728 1280.34 21.2429 1280.77 20.5926C1281.2 19.9261 1281.83 19.3728 1282.59 18.9882C1283.34 18.6035 1284.19 18.4009 1285.06 18.4005C1285.93 18.4006 1286.79 18.6037 1287.54 18.9893C1288.3 19.3748 1288.92 19.9294 1289.36 20.5972ZM1204.39 35.9469L1205.63 36H1224.25L1224.19 34.9028C1224.02 33.0941 1222.57 31.7728 1220.53 31.655L1219.28 31.6007H1208.12L1223.01 18.3993L1222.94 17.3032C1222.85 15.4761 1221.34 14.1559 1219.28 14.0554L1218.04 14.0058L1199.43 14.0012L1199.49 15.1019C1199.65 16.8932 1201.12 18.2422 1203.15 18.3462L1204.39 18.4005H1215.56L1200.67 31.6018L1200.73 32.7025C1200.85 34.5159 1202.33 35.8291 1204.39 35.9457V35.9469ZM1270.26 17.2212C1271.41 18.2426 1272.33 19.4552 1272.95 20.7898C1273.57 22.1244 1273.9 23.5548 1273.9 24.9994C1273.9 26.444 1273.57 27.8744 1272.95 29.209C1272.33 30.5436 1271.41 31.7562 1270.26 32.7776C1267.93 34.8399 1264.77 35.9983 1261.48 35.9983C1258.19 35.9983 1255.03 34.8399 1252.7 32.7776C1247.86 28.4823 1247.86 21.5166 1252.7 17.2212C1253.86 16.2002 1255.22 15.3902 1256.73 14.8375C1258.23 14.2848 1259.85 14.0002 1261.47 14C1263.11 13.999 1264.72 14.2831 1266.23 14.836C1267.74 15.3889 1269.11 16.1999 1270.26 17.2224V17.2212ZM1266.75 20.3362C1268.14 21.5744 1268.93 23.2531 1268.93 25.0035C1268.93 26.7538 1268.14 28.4326 1266.75 29.6707C1265.35 30.908 1263.46 31.6029 1261.48 31.6029C1259.51 31.6029 1257.61 30.908 1256.22 29.6707C1254.82 28.4326 1254.04 26.7538 1254.04 25.0035C1254.04 23.2531 1254.82 21.5744 1256.22 20.3362C1257.61 19.099 1259.51 18.404 1261.48 18.404C1263.46 18.404 1265.35 19.099 1266.75 20.3362ZM1235.43 14C1237.06 14.0004 1238.67 14.2851 1240.17 14.8381C1241.68 15.391 1243.05 16.2012 1244.2 17.2224C1249.04 21.5166 1249.04 28.4834 1244.2 32.7776C1241.87 34.8399 1238.71 35.9983 1235.42 35.9983C1232.13 35.9983 1228.97 34.8399 1226.64 32.7776C1221.79 28.4823 1221.79 21.5166 1226.64 17.2212C1227.79 16.2002 1229.16 15.3902 1230.66 14.8375C1232.17 14.2848 1233.78 14.0002 1235.41 14H1235.43ZM1240.68 20.3339C1242.08 21.5721 1242.87 23.2511 1242.87 25.0017C1242.87 26.7524 1242.08 28.4314 1240.68 29.6696C1239.29 30.9068 1237.39 31.6018 1235.42 31.6018C1233.44 31.6018 1231.55 30.9068 1230.15 29.6696C1228.76 28.4314 1227.97 26.7527 1227.97 25.0023C1227.97 23.252 1228.76 21.5732 1230.15 20.335C1231.55 19.0978 1233.44 18.4028 1235.42 18.4028C1237.39 18.4028 1239.29 19.0978 1240.68 20.335V20.3339Z" fill="#2D8CFF"/>
</g>
<defs>
<clipPath id="clip0_245_1102">
<rect width="126.369" height="48" fill="white" transform="translate(210.019)"/>
</clipPath>
<clipPath id="clip1_245_1102">
<rect width="128.626" height="48" fill="white" transform="translate(452.293)"/>
</clipPath>
<clipPath id="clip2_245_1102">
<rect width="145.551" height="48" fill="white" transform="translate(696.824)"/>
</clipPath>
<clipPath id="clip3_245_1102">
<rect width="125.241" height="48" fill="white" transform="translate(958.28)"/>
</clipPath>
<clipPath id="clip4_245_1102">
<rect width="110.573" height="48" fill="white" transform="translate(1199.43)"/>
</clipPath>
</defs>
</svg>
