<svg width="35" height="35" viewBox="0 0 35 35" fill="none" xmlns="http://www.w3.org/2000/svg">
<path d="M26.4545 0H8.21C3.67574 0 0 3.67574 0 8.21V26.5726C0 31.1069 3.67574 34.7826 8.21 34.7826H26.4545C30.9887 34.7826 34.6645 31.1069 34.6645 26.5726V8.21C34.6645 3.67574 30.9887 0 26.4545 0Z" fill="#EB4219"/>
<path d="M25.3101 17.0761C25.3101 18.7575 24.7529 20.2162 23.6386 21.4525L25.038 22.8433L23.1332 24.4566L21.656 22.9916C20.6065 23.548 19.4662 23.8261 18.2352 23.8261C16.2786 23.8261 14.6135 23.1771 13.24 21.879C11.8664 20.5686 11.1797 18.9676 11.1797 17.0761C11.1797 15.1847 11.8664 13.5899 13.24 12.2918C14.6135 10.9814 16.2786 10.3262 18.2352 10.3262C20.1918 10.3262 21.8569 10.9814 23.2304 12.2918C24.6169 13.5899 25.3101 15.1847 25.3101 17.0761ZM18.2352 21.3227C18.7405 21.3227 19.2459 21.2423 19.7512 21.0816L17.516 18.8564L19.4208 17.243L21.8115 19.6167C22.3558 18.8749 22.6279 18.0281 22.6279 17.0761C22.6279 15.8399 22.2067 14.82 21.3645 14.0164C20.5222 13.2128 19.4791 12.8111 18.2352 12.8111C16.9912 12.8111 15.9481 13.2128 15.1059 14.0164C14.2636 14.82 13.8425 15.8399 13.8425 17.0761C13.8425 18.3 14.2636 19.3138 15.1059 20.1173C15.9481 20.9209 16.9912 21.3227 18.2352 21.3227Z" fill="white"/>
</svg>
