<svg width="258" height="260" viewBox="0 0 258 260" fill="none" xmlns="http://www.w3.org/2000/svg">
<path d="M196.865 0.580078H61.0959C27.3536 0.580078 0 27.9336 0 61.676V198.324C0 232.066 27.3536 259.42 61.0959 259.42H196.865C230.607 259.42 257.96 232.066 257.96 198.324V61.676C257.96 27.9336 230.607 0.580078 196.865 0.580078Z" fill="#EB4219"/>
<path d="M188.347 127.654C188.347 140.165 184.201 151.021 175.908 160.221L186.322 170.571L172.147 182.576L161.155 171.675C153.344 175.815 144.858 177.885 135.698 177.885C121.137 177.885 108.747 173.055 98.5253 163.395C88.304 153.643 83.1934 141.729 83.1934 127.654C83.1934 113.578 88.304 101.71 98.5253 92.0505C108.747 82.2987 121.137 77.4229 135.698 77.4229C150.258 77.4229 162.649 82.2987 172.87 92.0505C183.188 101.71 188.347 113.578 188.347 127.654ZM135.698 159.255C139.459 159.255 143.219 158.657 146.98 157.461L130.346 140.901L144.521 128.896L162.312 146.559C166.362 141.039 168.387 134.738 168.387 127.654C168.387 118.454 165.253 110.864 158.985 104.884C152.717 98.9044 144.955 95.9144 135.698 95.9144C126.441 95.9144 118.678 98.9044 112.411 104.884C106.143 110.864 103.009 118.454 103.009 127.654C103.009 136.762 106.143 144.305 112.411 150.285C118.678 156.265 126.441 159.255 135.698 159.255Z" fill="black"/>
</svg>
