<svg width="23" height="25" viewBox="0 0 23 25" fill="none" xmlns="http://www.w3.org/2000/svg">
<path fill-rule="evenodd" clip-rule="evenodd" d="M20.9559 12.5809C20.9559 17.8257 16.7041 22.0774 11.4594 22.0774C6.21462 22.0774 1.96289 17.8257 1.96289 12.5809C1.96289 7.33609 6.21462 3.08435 11.4594 3.08435C16.7041 3.08435 20.9559 7.33609 20.9559 12.5809ZM11.7998 10.0951C10.876 10.4793 9.02999 11.2745 6.26157 12.4806C5.81201 12.6594 5.57652 12.8343 5.55508 13.0053C5.51885 13.2943 5.88076 13.4081 6.37361 13.563C6.44064 13.5841 6.5101 13.606 6.58131 13.6291C7.06619 13.7868 7.71844 13.9711 8.05751 13.9784C8.36508 13.9851 8.70837 13.8583 9.08737 13.5981C11.674 11.8521 13.0092 10.9695 13.0931 10.9505C13.1522 10.9371 13.2341 10.9202 13.2897 10.9695C13.3452 11.0188 13.3397 11.1124 13.3338 11.1374C13.298 11.2902 11.8774 12.611 11.1421 13.2945C10.913 13.5076 10.7504 13.6588 10.7172 13.6932C10.6427 13.7705 10.5668 13.8438 10.4939 13.914C10.0435 14.3483 9.70569 14.6739 10.5126 15.2057C10.9004 15.4612 11.2107 15.6726 11.5203 15.8834C11.8584 16.1136 12.1956 16.3432 12.6319 16.6293C12.7431 16.7021 12.8492 16.7778 12.9526 16.8516C13.3461 17.132 13.6996 17.3841 14.1363 17.3439C14.39 17.3205 14.6522 17.0819 14.7853 16.3702C15.0999 14.6884 15.7183 11.0444 15.8612 9.54276C15.8738 9.4112 15.858 9.24282 15.8454 9.16891C15.8327 9.095 15.8063 8.98969 15.7101 8.91174C15.5964 8.81941 15.4208 8.79994 15.3422 8.80132C14.985 8.80762 14.437 8.99817 11.7998 10.0951Z" fill="white"/>
</svg>
