<svg width="16" height="19" viewBox="0 0 16 19" fill="none" xmlns="http://www.w3.org/2000/svg">
<path d="M12.6799 3.62792C12.0039 2.85586 11.6313 1.86453 11.6314 0.838318H8.57466V13.1047C8.55158 13.7686 8.27149 14.3976 7.79348 14.859C7.31548 15.3204 6.67694 15.5781 6.01258 15.5777C4.60789 15.5777 3.44061 14.4302 3.44061 13.0057C3.44061 11.3043 5.08271 10.0282 6.77428 10.5525V7.42653C3.36147 6.97149 0.374023 9.6226 0.374023 13.0057C0.374023 16.2998 3.10427 18.6443 6.00269 18.6443C9.10884 18.6443 11.6314 16.1218 11.6314 13.0057V6.78353C12.8708 7.67368 14.359 8.15128 15.885 8.14866V5.09197C15.885 5.09197 14.0253 5.181 12.6799 3.62792Z" fill="white"/>
</svg>
